<?xml version="1.0" encoding="UTF-8" standalone="no"?>
<!-- Created with Inkscape (http://www.inkscape.org/) -->

<svg
   xmlns:ns0="http://www.iki.fi/pav/software/textext/"
   xmlns:dc="http://purl.org/dc/elements/1.1/"
   xmlns:cc="http://creativecommons.org/ns#"
   xmlns:rdf="http://www.w3.org/1999/02/22-rdf-syntax-ns#"
   xmlns:svg="http://www.w3.org/2000/svg"
   xmlns="http://www.w3.org/2000/svg"
   xmlns:sodipodi="http://sodipodi.sourceforge.net/DTD/sodipodi-0.dtd"
   xmlns:inkscape="http://www.inkscape.org/namespaces/inkscape"
   width="640px"
   height="480px"
   id="svg4542"
   version="1.1"
   inkscape:version="0.48.1 r9760"
   sodipodi:docname="rotacion-bases.svg">
  <sodipodi:namedview
     id="base"
     pagecolor="#ffffff"
     bordercolor="#666666"
     borderopacity="1.0"
     inkscape:pageopacity="0.0"
     inkscape:pageshadow="2"
     inkscape:zoom="1.3104167"
     inkscape:cx="324.57869"
     inkscape:cy="240"
     inkscape:current-layer="layer1"
     inkscape:document-units="px"
     showgrid="false"
     inkscape:window-width="1440"
     inkscape:window-height="848"
     inkscape:window-x="0"
     inkscape:window-y="0"
     inkscape:window-maximized="1" />
  <defs
     id="defs4544" />
  <metadata
     id="metadata4547">
    <rdf:RDF>
      <cc:Work
         rdf:about="">
        <dc:format>image/svg+xml</dc:format>
        <dc:type
           rdf:resource="http://purl.org/dc/dcmitype/StillImage" />
        <dc:title />
      </cc:Work>
    </rdf:RDF>
  </metadata>
  <g
     id="layer1"
     inkscape:label="Layer 1"
     inkscape:groupmode="layer">
    <g
       transform="matrix(0.10273235,0,0,0.10248908,-15.95285,-87.948836)"
       id="g4"
       style="fill:none;stroke:#000000;stroke-width:0.025in">
      <g
         transform="matrix(-0.09659462,-0.985031,0.985031,-0.09659462,48.55491,6988.588)"
         style="fill:#20bbe8;fill-opacity:1;stroke:#20bbe8;stroke-width:39.06835175;stroke-miterlimit:4;stroke-opacity:1;stroke-dasharray:none"
         id="g3770">
        <path
           inkscape:connector-curvature="0"
           id="path3772"
           style="font-size:12px;fill:#20bbe8;fill-opacity:1;fill-rule:evenodd;stroke:#20bbe8;stroke-width:39.06835175;stroke-linejoin:round;stroke-miterlimit:4;stroke-opacity:1;stroke-dasharray:none"
           d="m 2023.9236,1489.203 -30.9682,-408.8169 288.4416,291.3618 c -101.5203,-21.2569 -205.3628,26.5037 -257.4734,117.4551 z" />
        <path
           inkscape:connector-curvature="0"
           id="path3774"
           d="M 2004.266,1101.8065 3103.0838,3496.0729"
           style="fill:#20bbe8;fill-opacity:1;fill-rule:evenodd;stroke:#20bbe8;stroke-width:39.06835175;stroke-linecap:butt;stroke-linejoin:miter;stroke-miterlimit:4;stroke-opacity:1;stroke-dasharray:none" />
      </g>
      <defs
         id="defs6">
        <pattern
           patternUnits="userSpaceOnUse"
           height="200"
           width="200"
           y="0"
           x="0"
           id="tile1">
          <path
             id="path9"
             d="M 0 -100 200 16" />
          <path
             id="path11"
             d="M 0 -60 200 56" />
          <path
             id="path13"
             d="M 0 -20 200 96" />
          <path
             id="path15"
             d="M 0 20 200 136" />
          <path
             id="path17"
             d="M 0 60 200 176" />
          <path
             id="path19"
             d="M 0 100 200 216" />
          <path
             id="path21"
             d="M 0 140 200 256" />
          <path
             id="path23"
             d="M 0 180 200 296" />
        </pattern>
        <pattern
           patternUnits="userSpaceOnUse"
           height="200"
           width="200"
           y="0"
           x="0"
           id="tile2">
          <path
             id="path26"
             d="M 200 -100 0 16" />
          <path
             id="path28"
             d="M 200 -60 0 56" />
          <path
             id="path30"
             d="M 200 -20 0 96" />
          <path
             id="path32"
             d="M 200 20 0 136" />
          <path
             id="path34"
             d="M 200 60 0 176" />
          <path
             id="path36"
             d="M 200 100 0 216" />
          <path
             id="path38"
             d="M 200 140 0 256" />
          <path
             id="path40"
             d="M 200 180 0 296" />
        </pattern>
        <pattern
           patternUnits="userSpaceOnUse"
           height="200"
           width="200"
           y="0"
           x="0"
           id="tile3">
          <path
             id="path43"
             d="M 0 -100 200 16" />
          <path
             id="path45"
             d="M 200 -100 0 16" />
          <path
             id="path47"
             d="M 0 -60 200 56" />
          <path
             id="path49"
             d="M 200 -60 0 56" />
          <path
             id="path51"
             d="M 0 -20 200 96" />
          <path
             id="path53"
             d="M 200 -20 0 96" />
          <path
             id="path55"
             d="M 0 20 200 136" />
          <path
             id="path57"
             d="M 200 20 0 136" />
          <path
             id="path59"
             d="M 0 60 200 176" />
          <path
             id="path61"
             d="M 200 60 0 176" />
          <path
             id="path63"
             d="M 0 100 200 216" />
          <path
             id="path65"
             d="M 200 100 0 216" />
          <path
             id="path67"
             d="M 0 140 200 256" />
          <path
             id="path69"
             d="M 200 140 0 256" />
          <path
             id="path71"
             d="M 0 180 200 296" />
          <path
             id="path73"
             d="M 200 180 0 296" />
        </pattern>
        <pattern
           patternUnits="userSpaceOnUse"
           height="200"
           width="200"
           y="0"
           x="0"
           id="tile4">
          <path
             id="path76"
             d="M 100 0 200 100" />
          <path
             id="path78"
             d="M 0 0 200 200" />
          <path
             id="path80"
             d="M 0 100 100 200" />
        </pattern>
        <pattern
           patternUnits="userSpaceOnUse"
           height="200"
           width="200"
           y="0"
           x="0"
           id="tile5">
          <path
             id="path83"
             d="M 100 0 0 100" />
          <path
             id="path85"
             d="M 200 0 0 200" />
          <path
             id="path87"
             d="M 200 100 100 200" />
        </pattern>
        <pattern
           patternUnits="userSpaceOnUse"
           height="200"
           width="200"
           y="0"
           x="0"
           id="tile6">
          <path
             id="path90"
             d="M 100 0 200 100" />
          <path
             id="path92"
             d="M 0 0 200 200" />
          <path
             id="path94"
             d="M 0 100 100 200" />
          <path
             id="path96"
             d="M 100 0 0 100" />
          <path
             id="path98"
             d="M 200 0 0 200" />
          <path
             id="path100"
             d="M 200 100 100 200" />
        </pattern>
        <pattern
           patternUnits="userSpaceOnUse"
           height="200"
           width="200"
           y="0"
           x="0"
           id="tile7">
          <path
             id="path103"
             d="M 0 0 0 50" />
          <path
             id="path105"
             d="M 0 50 200 50" />
          <path
             id="path107"
             d="M 100 50 100 150" />
          <path
             id="path109"
             d="M 0 150 200 150" />
          <path
             id="path111"
             d="M 0 150 0 200" />
        </pattern>
        <pattern
           patternUnits="userSpaceOnUse"
           height="200"
           width="200"
           y="0"
           x="0"
           id="tile8">
          <path
             id="path114"
             d="M 0 0 50 0" />
          <path
             id="path116"
             d="M 50 0 50 200" />
          <path
             id="path118"
             d="M 50 100 150 100" />
          <path
             id="path120"
             d="M 150 0 150 200" />
          <path
             id="path122"
             d="M 150 0 200 0" />
        </pattern>
        <pattern
           patternUnits="userSpaceOnUse"
           height="200"
           width="200"
           y="0"
           x="0"
           id="tile9">
          <path
             id="path125"
             d="M 0 50 200 50" />
          <path
             id="path127"
             d="M 0 150 200 150" />
        </pattern>
        <pattern
           patternUnits="userSpaceOnUse"
           height="200"
           width="200"
           y="0"
           x="0"
           id="tile10">
          <path
             id="path130"
             d="M 50 0 50 200" />
          <path
             id="path132"
             d="M 150 0 150 200" />
        </pattern>
        <pattern
           patternUnits="userSpaceOnUse"
           height="200"
           width="200"
           y="0"
           x="0"
           id="tile11">
          <path
             id="path135"
             d="M 0 50 200 50" />
          <path
             id="path137"
             d="M 0 150 200 150" />
          <path
             id="path139"
             d="M 50 0 50 200" />
          <path
             id="path141"
             d="M 150 0 150 200" />
        </pattern>
        <pattern
           patternUnits="userSpaceOnUse"
           height="200"
           width="200"
           y="0"
           x="0"
           id="tile12">
          <path
             id="path144"
             d="M 0 0 25 50" />
          <path
             id="path146"
             d="M 0 50 200 50" />
          <path
             id="path148"
             d="M 100 50 125 150" />
          <path
             id="path150"
             d="M 0 150 200 150" />
          <path
             id="path152"
             d="M 0 150 25 200" />
        </pattern>
        <pattern
           patternUnits="userSpaceOnUse"
           height="200"
           width="200"
           y="0"
           x="0"
           id="tile13">
          <path
             id="path155"
             d="M 200 0 175 50" />
          <path
             id="path157"
             d="M 0 50 200 50" />
          <path
             id="path159"
             d="M 100 50 75 150" />
          <path
             id="path161"
             d="M 0 150 200 150" />
          <path
             id="path163"
             d="M 200 150 175 200" />
        </pattern>
        <pattern
           patternUnits="userSpaceOnUse"
           height="200"
           width="200"
           y="0"
           x="0"
           id="tile14">
          <path
             id="path166"
             d="M 0 0 50 25" />
          <path
             id="path168"
             d="M 50 0 50 200" />
          <path
             id="path170"
             d="M 50 100 150 125" />
          <path
             id="path172"
             d="M 150 0 150 200" />
          <path
             id="path174"
             d="M 150 0 200 25" />
        </pattern>
        <pattern
           patternUnits="userSpaceOnUse"
           height="200"
           width="200"
           y="0"
           x="0"
           id="tile15">
          <path
             id="path177"
             d="M 0 25 50 0" />
          <path
             id="path179"
             d="M 50 0 50 200" />
          <path
             id="path181"
             d="M 50 125 150 100" />
          <path
             id="path183"
             d="M 150 0 150 200" />
          <path
             id="path185"
             d="M 150 25 200 0" />
        </pattern>
        <pattern
           patternUnits="userSpaceOnUse"
           height="200"
           width="200"
           y="0"
           x="0"
           id="tile16">
          <path
             id="path188"
             d="M 0 50 A 50 50 0 1 0 100 50" />
          <path
             id="path190"
             d="M 100 50 A 50 50 0 1 0 200 50" />
          <path
             id="path192"
             d="M 50 100 A 50 50 0 1 0 150 100" />
          <path
             id="path194"
             d="M 0 150 A 50 50 0 0 0 50 100" />
          <path
             id="path196"
             d="M 150 100 A 50 50 0 1 0 200 50" />
          <path
             id="path198"
             d="M 50 0 A 50 50 0 1 0 150 0" />
          <path
             id="path200"
             d="M 150 0 A 50 50 0 0 0 200 50" />
          <path
             id="path202"
             d="M 0 50 A 50 50 0 0 0 50 0" />
          <path
             id="path204"
             d="M 0 150 A 50 50 0 1 0 100 150" />
          <path
             id="path206"
             d="M 100 150 A 50 50 0 1 0 200 150" />
        </pattern>
        <pattern
           patternUnits="userSpaceOnUse"
           height="100"
           width="100"
           y="0"
           x="0"
           id="tile17">
          <g
             id="g209"
             transform="scale(0.5)">
            <path
               id="path211"
               d="M 0 50 A 50 50 0 1 0 100 50" />
            <path
               id="path213"
               d="M 100 50 A 50 50 0 1 0 200 50" />
            <path
               id="path215"
               d="M 50 100 A 50 50 0 1 0 150 100" />
            <path
               id="path217"
               d="M 0 150 A 50 50 0 0 0 50 100" />
            <path
               id="path219"
               d="M 150 100 A 50 50 0 1 0 200 50" />
            <path
               id="path221"
               d="M 50 0 A 50 50 0 1 0 150 0" />
            <path
               id="path223"
               d="M 150 0 A 50 50 0 0 0 200 50" />
            <path
               id="path225"
               d="M 0 50 A 50 50 0 0 0 50 0" />
            <path
               id="path227"
               d="M 0 150 A 50 50 0 1 0 100 150" />
            <path
               id="path229"
               d="M 100 150 A 50 50 0 1 0 200 150" />
          </g>
        </pattern>
        <pattern
           patternUnits="userSpaceOnUse"
           height="200"
           width="200"
           y="0"
           x="0"
           id="tile18">
          <circle
             id="circle232"
             r="100"
             cy="100"
             cx="100" />
        </pattern>
        <pattern
           patternUnits="userSpaceOnUse"
           height="200"
           width="200"
           y="0"
           x="0"
           id="tile19">
          <path
             id="path235"
             d="M 0 50 45 0 105 0 140 50 200 50 " />
          <path
             id="path237"
             d="M 0 50 45 100 105 100 140 50 200 50" />
          <path
             id="path239"
             d="M 0 150 45 100 105 100 140 150 200 150" />
          <path
             id="path241"
             d="M 0 150 45 200 105 200 140 150 200 150" />
        </pattern>
        <pattern
           patternUnits="userSpaceOnUse"
           height="200"
           width="200"
           y="0"
           x="0"
           id="tile20">
          <path
             id="path244"
             d="M 0 70 65 0 140 0 200 70 " />
          <path
             id="path246"
             d="M 0 70 0 130 65 200 140 200 200 130 200 70" />
        </pattern>
        <pattern
           patternUnits="userSpaceOnUse"
           height="200"
           width="200"
           y="0"
           x="0"
           id="tile21">
          <path
             id="path249"
             d="M 50 0 75 25 100 0 M 150 0 175 25 200 0" />
          <path
             id="path251"
             d="M 0 50 25 25 75 75 125 25 175 75 200 50" />
          <path
             id="path253"
             d="M 0 100 25 75 75 125 125 75 175 125 200 100" />
          <path
             id="path255"
             d="M 0 150 25 125 75 175 125 125 175 175 200 150" />
          <path
             id="path257"
             d="M 0 200 25 175 75 225 125 175 175 225 200 200" />
        </pattern>
        <pattern
           patternUnits="userSpaceOnUse"
           height="200"
           width="200"
           y="0"
           x="0"
           id="tile22">
          <path
             id="path260"
             d="M 0 50 25 75 0 100 M 0 150 25 175 0 200" />
          <path
             id="path262"
             d="M 50 0 25 25 75 75 25 125 75 175 50 200" />
          <path
             id="path264"
             d="M 100 0 75 25 125 75 75 125 125 175 100 200" />
          <path
             id="path266"
             d="M 150 0 125 25 175 75 125 125 175 175 150 200" />
          <path
             id="path268"
             d="M 200 0 175 25 225 75 175 125 225 175 200 200" />
        </pattern>
      </defs>
      <!-- Line -->
      <path
         inkscape:connector-curvature="0"
         d=""
         id="path270"
         style="stroke:#000000;stroke-width:16" />
      <!-- Line -->
      <!-- Line -->
      <!-- Arrowhead on endpoint -->
      <!-- Line -->
      <!-- Arrowhead on endpoint -->
      <!-- Line -->
      <!-- Arrowhead on endpoint -->
      <!-- Line -->
      <!-- Arrowhead on endpoint -->
      <!-- Line -->
      <!-- Arrowhead on endpoint -->
      <!-- Line -->
      <!-- Arrowhead on endpoint -->
      <!-- Line -->
      <!-- Arrowhead on endpoint -->
      <!-- Line -->
      <!-- Arrowhead on endpoint -->
      <!-- Line -->
      <!-- Arrowhead on endpoint -->
      <g
         style="stroke-width:39.06835175;stroke-miterlimit:4;stroke-dasharray:none"
         transform="matrix(0.972217,0.185497,-0.185497,0.972217,826.9117,-370.9944)"
         id="g3751">
        <g
           id="g3729"
           style="fill:#20bbe8;fill-opacity:1;stroke:#20bbe8;stroke-width:39.06835556;stroke-miterlimit:4;stroke-opacity:1;stroke-dasharray:none"
           transform="matrix(0.971972,0.235095,-0.235095,0.971972,909.1338,-633.8688)">
          <path
             inkscape:connector-curvature="0"
             style="fill:#20bbe8;fill-opacity:1;fill-rule:evenodd;stroke:#20bbe8;stroke-width:39.06835556;stroke-linecap:butt;stroke-linejoin:miter;stroke-miterlimit:4;stroke-opacity:1;stroke-dasharray:none"
             d="M 2004.266,1101.8065 3103.0838,3496.0729"
             id="path3733" />
          <path
             inkscape:connector-curvature="0"
             d="m 2023.9236,1489.203 -30.9682,-408.8169 288.4416,291.3618 c -101.5203,-21.2569 -205.3628,26.5037 -257.4734,117.4551 z"
             style="font-size:12px;fill:#20bbe8;fill-opacity:1;fill-rule:evenodd;stroke:#20bbe8;stroke-width:39.06835556;stroke-linejoin:round;stroke-miterlimit:4;stroke-opacity:1;stroke-dasharray:none"
             id="path3731" />
        </g>
        <g
           style="fill:#20bbe8;fill-opacity:1;stroke-width:39.06835175;stroke-miterlimit:4;stroke-dasharray:none"
           id="g3725">
          <path
             inkscape:connector-curvature="0"
             d="m 2023.9236,1489.203 -30.9682,-408.8169 288.4416,291.3618 c -101.5203,-21.2569 -205.3628,26.5037 -257.4734,117.4551 z"
             style="font-size:12px;fill:#f11500;fill-opacity:1;fill-rule:evenodd;stroke:#f11500;stroke-width:39.06835175;stroke-linejoin:round;stroke-miterlimit:4;stroke-opacity:1;stroke-dasharray:none"
             id="path3721" />
          <path
             inkscape:connector-curvature="0"
             style="fill:#f11500;fill-opacity:1;fill-rule:evenodd;stroke:#f11500;stroke-width:39.06835175;stroke-linecap:butt;stroke-linejoin:miter;stroke-miterlimit:4;stroke-opacity:1;stroke-dasharray:none"
             d="M 2004.266,1101.8065 3103.0838,3496.0729"
             id="path3723" />
        </g>
        <g
           style="stroke-width:39.06835175;stroke-miterlimit:4;stroke-dasharray:none"
           id="g3685"
           transform="translate(-5.452502,-53.16189)">
          <path
             inkscape:connector-curvature="0"
             style="fill:#000000;fill-opacity:1;fill-rule:evenodd;stroke:none"
             d="m 2511.4843,2142.7031 c 21.5247,-132.4878 145.5716,-221.5406 277.0366,-200.182 l 3.8461,-18.8943 c -143.1487,-23.2568 -278.1838,74.3608 -301.2744,216.4869 l 20.3917,2.5894 z"
             id="path3669" />
          <path
             inkscape:connector-curvature="0"
             d="m 2590.8276,2058.5174 -104.9677,124.7318 -7.6942,-159.0279 c 25.4876,32.7907 71.0348,46.5117 112.6619,34.2961 z"
             style="font-size:12px;fill:#000000;fill-opacity:1;fill-rule:evenodd;stroke:none"
             id="path3691" />
        </g>
      </g>
      <g
         transform="matrix(-0.325463,-0.934713,0.934713,-0.325463,936.9302,7632.067)"
         id="g3764"
         style="fill:#20bbe8;fill-opacity:1;stroke:#000000;stroke-width:39.06834793;stroke-miterlimit:4;stroke-dasharray:none">
        <path
           inkscape:connector-curvature="0"
           id="path3766"
           style="font-size:12px;fill:#f11500;fill-opacity:1;fill-rule:evenodd;stroke:#f11500;stroke-width:39.06834793;stroke-linejoin:round;stroke-miterlimit:4;stroke-opacity:1;stroke-dasharray:none"
           d="m 2023.9236,1489.203 -30.9682,-408.8169 288.4416,291.3618 c -101.5203,-21.2569 -205.3628,26.5037 -257.4734,117.4551 z" />
        <path
           inkscape:connector-curvature="0"
           id="path3768"
           d="M 2004.266,1101.8065 3103.0838,3496.0729"
           style="fill:#f11500;fill-opacity:1;fill-rule:evenodd;stroke:#f11500;stroke-width:39.06834793;stroke-linecap:butt;stroke-linejoin:miter;stroke-miterlimit:4;stroke-opacity:1;stroke-dasharray:none" />
      </g>
      <g
         transform="matrix(-0.325463,-0.934713,0.934713,-0.325463,889.0134,7654.466)"
         id="g3776"
         style="fill:none;stroke:#000000;stroke-width:39.06834793;stroke-miterlimit:4;stroke-dasharray:none">
        <path
           inkscape:connector-curvature="0"
           id="path3778"
           d="m 2511.4843,2142.7031 c 21.5247,-132.4878 145.5716,-221.5406 277.0366,-200.182 l 3.8461,-18.8943 c -143.1487,-23.2568 -278.1838,74.3608 -301.2744,216.4869 l 20.3917,2.5894 z"
           style="fill:#000000;fill-opacity:1;fill-rule:evenodd;stroke:none" />
        <path
           inkscape:connector-curvature="0"
           id="path3780"
           style="font-size:12px;fill:#000000;fill-opacity:1;fill-rule:evenodd;stroke:none"
           d="m 2594.598,2065.2279 -116.3767,114.1608 7.4959,-159.0374 c 22.2468,35.0704 66.279,53.0696 108.8808,44.8766 z" />
      </g>
      <g
         transform="matrix(-0.804764,0.576169,-0.576169,-0.804764,7698.318,4622.551)"
         style="fill:#20bbe8;fill-opacity:1;stroke:#20bbe8;stroke-width:39.06835175;stroke-miterlimit:4;stroke-opacity:1;stroke-dasharray:none"
         id="g3870">
        <path
           inkscape:connector-curvature="0"
           id="path3872"
           style="font-size:12px;fill:#20bbe8;fill-opacity:1;fill-rule:evenodd;stroke:#20bbe8;stroke-width:39.06835175;stroke-linejoin:round;stroke-miterlimit:4;stroke-opacity:1;stroke-dasharray:none"
           d="m 2023.9236,1489.203 -30.9682,-408.8169 288.4416,291.3618 c -101.5203,-21.2569 -205.3628,26.5037 -257.4734,117.4551 z" />
        <path
           inkscape:connector-curvature="0"
           id="path3874"
           d="M 2004.266,1101.8065 3103.0838,3496.0729"
           style="fill:#20bbe8;fill-opacity:1;fill-rule:evenodd;stroke:#20bbe8;stroke-width:39.06835175;stroke-linecap:butt;stroke-linejoin:miter;stroke-miterlimit:4;stroke-opacity:1;stroke-dasharray:none" />
      </g>
      <g
         transform="matrix(-0.464041,0.803743,-0.803743,-0.464041,7354.021,2567.892)"
         id="g3876"
         style="fill:none;stroke:#000000;stroke-width:39.06834793;stroke-miterlimit:4;stroke-dasharray:none">
        <path
           inkscape:connector-curvature="0"
           id="path3878"
           d="m 2860.2908,1743.8834 c 49.0289,-134.4861 196.7739,-202.9802 330.2217,-154.3298 l 7.8055,-19.024 c -145.3078,-52.9743 -306.2754,22.2958 -358.8711,166.5655 l 20.8439,6.7883 z"
           style="fill:#000000;fill-opacity:1;fill-rule:evenodd;stroke:none" />
        <path
           inkscape:connector-curvature="0"
           id="path3880"
           style="font-size:12px;fill:#000000;fill-opacity:1;fill-rule:evenodd;stroke:none"
           d="m 2962.1357,1680.2805 -146.5127,93.5932 42.7343,-164.3282 c 15.5185,41.4835 57.5201,69.9334 103.7784,70.735 z" />
        <path
           sodipodi:type="arc"
           style="fill:#f11500;fill-opacity:1;fill-rule:evenodd;stroke:#20bbe8;stroke-width:0.46000001;stroke-linecap:butt;stroke-linejoin:bevel;stroke-miterlimit:4;stroke-opacity:1;stroke-dasharray:none;stroke-dashoffset:0"
           id="path4851"
           sodipodi:cx="5729.27"
           sodipodi:cy="11127.112"
           sodipodi:rx="212.90997"
           sodipodi:ry="246.30762"
           d="m 5942.18,11127.112 c 0,136.032 -95.323,246.308 -212.91,246.308 -117.5869,0 -212.91,-110.276 -212.91,-246.308 0,-136.032 95.3231,-246.307 212.91,-246.307 117.587,0 212.91,110.275 212.91,246.307 z"
           transform="matrix(-0.05286313,-0.15182,0.131263,-0.04570538,2046.705,4701.801)" />
      </g>
      <g
         transform="matrix(-0.646754,0.749215,-0.749215,-0.646754,7811.399,3531.457)"
         id="g3864"
         style="fill:#20bbe8;fill-opacity:1;stroke:#000000;stroke-width:39.06834793;stroke-miterlimit:4;stroke-dasharray:none">
        <path
           inkscape:connector-curvature="0"
           id="path3866"
           style="font-size:12px;fill:#f11500;fill-opacity:1;fill-rule:evenodd;stroke:#f11500;stroke-width:39.06834793;stroke-linejoin:round;stroke-miterlimit:4;stroke-opacity:1;stroke-dasharray:none"
           d="m 2023.9236,1489.203 -30.9682,-408.8169 288.4416,291.3618 c -101.5203,-21.2569 -205.3628,26.5037 -257.4734,117.4551 z" />
        <path
           inkscape:connector-curvature="0"
           id="path3868"
           d="M 2004.266,1101.8065 3103.0838,3496.0729"
           style="fill:#f11500;fill-opacity:1;fill-rule:evenodd;stroke:#f11500;stroke-width:39.06834793;stroke-linecap:butt;stroke-linejoin:miter;stroke-miterlimit:4;stroke-opacity:1;stroke-dasharray:none" />
      </g>
    </g>
    <g
       style="font-style:normal;font-variant:normal;font-weight:normal;font-stretch:normal;letter-spacing:normal;word-spacing:normal;text-anchor:start;fill:none;stroke:#000000;stroke-linecap:butt;stroke-linejoin:miter;stroke-miterlimit:10.43299961;stroke-opacity:1;stroke-dasharray:none;stroke-dashoffset:0"
       ns0:preamble=""
       ns0:text="$x_3$"
       text-anchor="start"
       word-spacing="normal"
       letter-spacing="normal"
       font-size-adjust="none"
       font-stretch="normal"
       font-weight="normal"
       font-variant="normal"
       font-style="normal"
       fill-opacity="1"
       fill-rule="evenodd"
       fill="none"
       stroke-opacity="1"
       stroke-dashoffset="0"
       stroke-dasharray="none"
       stroke-miterlimit="10.433"
       stroke-linejoin="miter"
       stroke-linecap="butt"
       stroke="black"
       xml:space="preserve"
       transform="matrix(3,0,0,-3,-350.31017,2198.236)"
       id="g7881">


</g>    <g
       id="g3369"
       transform="matrix(3,0,0,-3,-161.65992,2438.1964)"
       xml:space="preserve"
       stroke="black"
       stroke-linecap="butt"
       stroke-linejoin="miter"
       stroke-miterlimit="10.433"
       stroke-dasharray="none"
       stroke-dashoffset="0"
       stroke-opacity="1"
       fill="none"
       fill-rule="evenodd"
       fill-opacity="1"
       font-style="normal"
       font-variant="normal"
       font-weight="normal"
       font-stretch="normal"
       font-size-adjust="none"
       letter-spacing="normal"
       word-spacing="normal"
       text-anchor="start"
       ns0:text="$\\hat{e}_2\'$"
       ns0:preamble=""
       style="font-style:normal;font-variant:normal;font-weight:normal;font-stretch:normal;letter-spacing:normal;word-spacing:normal;text-anchor:start;fill:none;stroke:#000000;stroke-linecap:butt;stroke-linejoin:miter;stroke-miterlimit:10.43299961;stroke-opacity:1;stroke-dasharray:none;stroke-dashoffset:0">
<polygon
   points="226.31,714.03 224.97,712.68 225.15,712.5 226.31,713.52 227.45,712.5 227.63,712.68 "
   stroke-width="0"
   fill="black"
   id="polygon3371" />
<path
   d="M225.3,709.42 L225.32,709.42 L225.36,709.42 L225.39,709.42 L225.42,709.43 L225.46,709.43 L225.5,709.43 L225.54,709.43 L225.59,709.43 L225.63,709.43 L225.68,709.44 L225.73,709.44 L225.77,709.44 L225.82,709.45 L225.88,709.45 L225.98,709.46 L226.09,709.47 L226.2,709.49 L226.3,709.51 L226.41,709.53 L226.52,709.55 L226.57,709.57 L226.62,709.58 L226.68,709.6 L226.72,709.62 L226.77,709.63 L226.82,709.65 C227.52,709.95,227.57,710.54,227.57,710.68 C227.57,711.12,227.19,711.52,226.5,711.52 V711.3 C226.97,711.3,227.24,711.02,227.24,710.68 C227.24,709.64,225.65,709.64,225.24,709.64 H224.83 C225.22,711.16,226.24,711.3,226.5,711.3 V711.52 C225.4,711.52,223.89,710.56,223.89,708.82 C223.89,707.8,224.48,707.02,225.46,707.02 C226.88,707.02,227.72,708.07,227.72,708.19 C227.72,708.25,227.66,708.32,227.6,708.32 C227.55,708.32,227.53,708.3,227.47,708.22 C226.68,707.23,225.6,707.23,225.48,707.23 C224.7,707.23,224.61,708.07,224.61,708.39 C224.61,708.51,224.62,708.82,224.77,709.42 Z "
   stroke-width="0"
   fill="black"
   id="path3373" />
<path
   d="M230.09,714.02 L230.1,714.03 L230.1,714.04 L230.11,714.05 L230.11,714.06 L230.11,714.07 L230.12,714.08 L230.12,714.09 L230.12,714.1 L230.13,714.11 L230.13,714.12 L230.13,714.12 L230.13,714.13 L230.14,714.14 L230.14,714.15 L230.14,714.15 L230.14,714.16 L230.14,714.17 L230.15,714.17 L230.15,714.18 L230.15,714.18 L230.15,714.19 L230.15,714.2 L230.15,714.2 L230.15,714.21 L230.15,714.22 L230.15,714.23 L230.15,714.24 L230.15,714.24 C230.15,714.46,229.96,714.63,229.74,714.63 C229.48,714.63,229.39,714.41,229.36,714.3 L228.44,711.29 C228.43,711.28,228.4,711.18,228.4,711.18 C228.4,711.09,228.62,711.03,228.68,711.03 C228.73,711.03,228.73,711.04,228.78,711.14 Z "
   stroke-width="0"
   fill="black"
   id="path3375" />
<path
   d="M231.59,705.92 H231.35 C231.33,705.77,231.26,705.35,231.17,705.28 C231.11,705.24,230.58,705.24,230.48,705.24 H229.2 C229.93,705.89,230.17,706.08,230.59,706.41 C231.11,706.82,231.59,707.25,231.59,707.91 C231.59,708.75,230.85,709.27,229.96,709.27 C229.1,709.27,228.51,708.66,228.51,708.02 C228.51,707.67,228.81,707.64,228.88,707.64 C229.05,707.64,229.25,707.75,229.25,708 C229.25,708.13,229.2,708.37,228.84,708.37 C229.05,708.87,229.53,709.02,229.85,709.02 C230.55,709.02,230.91,708.48,230.91,707.91 C230.91,707.31,230.48,706.83,230.26,706.58 L228.58,704.92 C228.51,704.86,228.51,704.85,228.51,704.65 H231.38 Z "
   stroke-width="0"
   fill="black"
   id="path3377" />
</g>    <g
       style="font-style:normal;font-variant:normal;font-weight:normal;font-stretch:normal;letter-spacing:normal;word-spacing:normal;text-anchor:start;fill:none;stroke:#000000;stroke-linecap:butt;stroke-linejoin:miter;stroke-miterlimit:10.43299961;stroke-opacity:1;stroke-dasharray:none;stroke-dashoffset:0"
       ns0:preamble=""
       ns0:text="$\\hat{e}_2$"
       text-anchor="start"
       word-spacing="normal"
       letter-spacing="normal"
       font-size-adjust="none"
       font-stretch="normal"
       font-weight="normal"
       font-variant="normal"
       font-style="normal"
       fill-opacity="1"
       fill-rule="evenodd"
       fill="none"
       stroke-opacity="1"
       stroke-dashoffset="0"
       stroke-dasharray="none"
       stroke-miterlimit="10.433"
       stroke-linejoin="miter"
       stroke-linecap="butt"
       stroke="black"
       xml:space="preserve"
       transform="matrix(3,0,0,-3,-208.7887,2526.5335)"
       id="g3772">
<polygon
   id="polygon3774"
   fill="black"
   stroke-width="0"
   points="226.31,714.03 224.97,712.68 225.15,712.5 226.31,713.52 227.45,712.5 227.63,712.68 " />
<path
   id="path3776"
   fill="black"
   stroke-width="0"
   d="M225.3,709.42 L225.32,709.42 L225.36,709.42 L225.39,709.42 L225.42,709.43 L225.46,709.43 L225.5,709.43 L225.54,709.43 L225.59,709.43 L225.63,709.43 L225.68,709.44 L225.73,709.44 L225.77,709.44 L225.82,709.45 L225.88,709.45 L225.98,709.46 L226.09,709.47 L226.2,709.49 L226.3,709.51 L226.41,709.53 L226.52,709.55 L226.57,709.57 L226.62,709.58 L226.68,709.6 L226.72,709.62 L226.77,709.63 L226.82,709.65 C227.52,709.95,227.57,710.54,227.57,710.68 C227.57,711.12,227.19,711.52,226.5,711.52 V711.3 C226.97,711.3,227.24,711.02,227.24,710.68 C227.24,709.64,225.65,709.64,225.24,709.64 H224.83 C225.22,711.16,226.24,711.3,226.5,711.3 V711.52 C225.4,711.52,223.89,710.56,223.89,708.82 C223.89,707.8,224.48,707.02,225.46,707.02 C226.88,707.02,227.72,708.07,227.72,708.19 C227.72,708.25,227.66,708.32,227.6,708.32 C227.55,708.32,227.53,708.3,227.47,708.22 C226.68,707.23,225.6,707.23,225.48,707.23 C224.7,707.23,224.61,708.07,224.61,708.39 C224.61,708.51,224.62,708.82,224.77,709.42 Z " />
<path
   id="path3779"
   fill="black"
   stroke-width="0"
   d="M231.59,706.9 H231.35 C231.33,706.74,231.26,706.33,231.17,706.26 C231.11,706.22,230.58,706.22,230.48,706.22 H229.2 C229.93,706.87,230.17,707.06,230.59,707.39 C231.11,707.8,231.59,708.23,231.59,708.89 C231.59,709.73,230.85,710.25,229.96,710.25 C229.1,710.25,228.51,709.64,228.51,709 C228.51,708.65,228.81,708.61,228.88,708.61 C229.05,708.61,229.25,708.73,229.25,708.98 C229.25,709.11,229.2,709.35,228.84,709.35 C229.05,709.84,229.53,710,229.85,710 C230.55,710,230.91,709.46,230.91,708.89 C230.91,708.29,230.48,707.81,230.26,707.56 L228.58,705.9 C228.51,705.84,228.51,705.83,228.51,705.63 H231.38 Z " />
</g>    <g
       id="content"
       transform="matrix(3,0,0,-3,-500.79491,2568.9825)"
       xml:space="preserve"
       stroke="black"
       stroke-linecap="butt"
       stroke-linejoin="miter"
       stroke-miterlimit="10.433"
       stroke-dasharray="none"
       stroke-dashoffset="0"
       stroke-opacity="1"
       fill="none"
       fill-rule="evenodd"
       fill-opacity="1"
       font-style="normal"
       font-variant="normal"
       font-weight="normal"
       font-stretch="normal"
       font-size-adjust="none"
       letter-spacing="normal"
       word-spacing="normal"
       text-anchor="start"
       ns0:text="$\\hat{e}_1\'$"
       ns0:preamble=""
       style="font-style:normal;font-variant:normal;font-weight:normal;font-stretch:normal;letter-spacing:normal;word-spacing:normal;text-anchor:start;fill:none;stroke:#000000;stroke-linecap:butt;stroke-linejoin:miter;stroke-miterlimit:10.43299961;stroke-opacity:1;stroke-dasharray:none;stroke-dashoffset:0">
<polygon
   points="226.31,714.03 224.97,712.68 225.15,712.5 226.31,713.52 227.45,712.5 227.63,712.68 "
   stroke-width="0"
   fill="black"
   id="polygon4176" />
<path
   d="M225.3,709.42 L225.32,709.42 L225.36,709.42 L225.39,709.42 L225.42,709.43 L225.46,709.43 L225.5,709.43 L225.54,709.43 L225.59,709.43 L225.63,709.43 L225.68,709.44 L225.73,709.44 L225.77,709.44 L225.82,709.45 L225.88,709.45 L225.98,709.46 L226.09,709.47 L226.2,709.49 L226.3,709.51 L226.41,709.53 L226.52,709.55 L226.57,709.57 L226.62,709.58 L226.68,709.6 L226.72,709.62 L226.77,709.63 L226.82,709.65 C227.52,709.95,227.57,710.54,227.57,710.68 C227.57,711.12,227.19,711.52,226.5,711.52 V711.3 C226.97,711.3,227.24,711.02,227.24,710.68 C227.24,709.64,225.65,709.64,225.24,709.64 H224.83 C225.22,711.16,226.24,711.3,226.5,711.3 V711.52 C225.4,711.52,223.89,710.56,223.89,708.82 C223.89,707.8,224.48,707.02,225.46,707.02 C226.88,707.02,227.72,708.07,227.72,708.19 C227.72,708.25,227.66,708.32,227.6,708.32 C227.55,708.32,227.53,708.3,227.47,708.22 C226.68,707.23,225.6,707.23,225.48,707.23 C224.7,707.23,224.61,708.07,224.61,708.39 C224.61,708.51,224.62,708.82,224.77,709.42 Z "
   stroke-width="0"
   fill="black"
   id="path4178" />
<path
   d="M230.09,714.02 L230.1,714.03 L230.1,714.04 L230.11,714.05 L230.11,714.06 L230.11,714.07 L230.12,714.08 L230.12,714.09 L230.12,714.1 L230.13,714.11 L230.13,714.12 L230.13,714.12 L230.13,714.13 L230.14,714.14 L230.14,714.15 L230.14,714.15 L230.14,714.16 L230.14,714.17 L230.15,714.17 L230.15,714.18 L230.15,714.18 L230.15,714.19 L230.15,714.2 L230.15,714.2 L230.15,714.21 L230.15,714.22 L230.15,714.23 L230.15,714.24 L230.15,714.24 C230.15,714.46,229.96,714.63,229.74,714.63 C229.48,714.63,229.39,714.41,229.36,714.3 L228.44,711.29 C228.43,711.28,228.4,711.18,228.4,711.18 C228.4,711.09,228.62,711.03,228.68,711.03 C228.73,711.03,228.73,711.04,228.78,711.14 Z "
   stroke-width="0"
   fill="black"
   id="path4180" />
<path
   d="M230.4,709.07 L230.4,709.08 L230.4,709.09 L230.4,709.1 L230.4,709.11 L230.4,709.11 L230.4,709.12 L230.4,709.13 L230.4,709.14 L230.4,709.14 L230.4,709.15 L230.4,709.16 L230.4,709.16 L230.4,709.17 L230.4,709.17 L230.4,709.18 L230.4,709.18 L230.4,709.19 L230.4,709.19 L230.39,709.2 L230.39,709.21 L230.39,709.22 L230.39,709.23 L230.38,709.23 L230.38,709.24 L230.37,709.24 L230.37,709.25 L230.36,709.25 L230.35,709.25 L230.35,709.26 L230.34,709.26 L230.33,709.26 L230.32,709.26 L230.32,709.26 L230.31,709.26 L230.3,709.27 L230.3,709.27 L230.29,709.27 L230.29,709.27 L230.28,709.27 L230.27,709.27 L230.27,709.27 L230.26,709.27 L230.25,709.27 L230.25,709.27 L230.24,709.27 L230.23,709.27 L230.22,709.27 L230.21,709.27 L230.2,709.27 L230.2,709.27 C229.75,708.83,229.12,708.82,228.83,708.82 V708.57 C229,708.57,229.46,708.57,229.84,708.77 V705.22 C229.84,704.99,229.84,704.9,229.14,704.9 H228.88 V704.65 C229,704.66,229.86,704.68,230.12,704.68 C230.33,704.68,231.21,704.66,231.37,704.65 V704.9 H231.1 C230.4,704.9,230.4,704.99,230.4,705.22 Z "
   stroke-width="0"
   fill="black"
   id="path4182" />
</g>    <g
       style="font-style:normal;font-variant:normal;font-weight:normal;font-stretch:normal;letter-spacing:normal;word-spacing:normal;text-anchor:start;fill:none;stroke:#000000;stroke-linecap:butt;stroke-linejoin:miter;stroke-miterlimit:10.43299961;stroke-opacity:1;stroke-dasharray:none;stroke-dashoffset:0"
       ns0:preamble=""
       ns0:text="$\\hat{e}_1$"
       text-anchor="start"
       word-spacing="normal"
       letter-spacing="normal"
       font-size-adjust="none"
       font-stretch="normal"
       font-weight="normal"
       font-variant="normal"
       font-style="normal"
       fill-opacity="1"
       fill-rule="evenodd"
       fill="none"
       stroke-opacity="1"
       stroke-dashoffset="0"
       stroke-dasharray="none"
       stroke-miterlimit="10.433"
       stroke-linejoin="miter"
       stroke-linecap="butt"
       stroke="black"
       xml:space="preserve"
       transform="matrix(3,0,0,-3,-561.44896,2490.395)"
       id="g4581">
<polygon
   id="polygon4583"
   fill="black"
   stroke-width="0"
   points="226.31,714.03 224.97,712.68 225.15,712.5 226.31,713.52 227.45,712.5 227.63,712.68 " />
<path
   id="path4585"
   fill="black"
   stroke-width="0"
   d="M225.3,709.42 L225.32,709.42 L225.36,709.42 L225.39,709.42 L225.42,709.43 L225.46,709.43 L225.5,709.43 L225.54,709.43 L225.59,709.43 L225.63,709.43 L225.68,709.44 L225.73,709.44 L225.77,709.44 L225.82,709.45 L225.88,709.45 L225.98,709.46 L226.09,709.47 L226.2,709.49 L226.3,709.51 L226.41,709.53 L226.52,709.55 L226.57,709.57 L226.62,709.58 L226.68,709.6 L226.72,709.62 L226.77,709.63 L226.82,709.65 C227.52,709.95,227.57,710.54,227.57,710.68 C227.57,711.12,227.19,711.52,226.5,711.52 V711.3 C226.97,711.3,227.24,711.02,227.24,710.68 C227.24,709.64,225.65,709.64,225.24,709.64 H224.83 C225.22,711.16,226.24,711.3,226.5,711.3 V711.52 C225.4,711.52,223.89,710.56,223.89,708.82 C223.89,707.8,224.48,707.02,225.46,707.02 C226.88,707.02,227.72,708.07,227.72,708.19 C227.72,708.25,227.66,708.32,227.6,708.32 C227.55,708.32,227.53,708.3,227.47,708.22 C226.68,707.23,225.6,707.23,225.48,707.23 C224.7,707.23,224.61,708.07,224.61,708.39 C224.61,708.51,224.62,708.82,224.77,709.42 Z " />
<path
   id="path4587"
   fill="black"
   stroke-width="0"
   d="M230.4,710.05 L230.4,710.06 L230.4,710.07 L230.4,710.08 L230.4,710.09 L230.4,710.09 L230.4,710.1 L230.4,710.11 L230.4,710.12 L230.4,710.12 L230.4,710.13 L230.4,710.13 L230.4,710.14 L230.4,710.15 L230.4,710.15 L230.4,710.16 L230.4,710.16 L230.4,710.17 L230.4,710.17 L230.39,710.18 L230.39,710.19 L230.39,710.2 L230.39,710.2 L230.38,710.21 L230.38,710.22 L230.37,710.22 L230.37,710.23 L230.36,710.23 L230.35,710.23 L230.35,710.24 L230.34,710.24 L230.33,710.24 L230.32,710.24 L230.32,710.24 L230.31,710.24 L230.3,710.24 L230.3,710.25 L230.29,710.25 L230.29,710.25 L230.28,710.25 L230.27,710.25 L230.27,710.25 L230.26,710.25 L230.25,710.25 L230.25,710.25 L230.24,710.25 L230.23,710.25 L230.22,710.25 L230.21,710.25 L230.2,710.25 L230.2,710.25 C229.75,709.81,229.12,709.8,228.83,709.8 V709.55 C229,709.55,229.46,709.55,229.84,709.75 V706.2 C229.84,705.97,229.84,705.88,229.14,705.88 H228.88 V705.63 C229,705.64,229.86,705.66,230.12,705.66 C230.33,705.66,231.21,705.64,231.37,705.63 V705.88 H231.1 C230.4,705.88,230.4,705.97,230.4,706.2 Z " />
</g>    <g
       id="g3386"
       transform="matrix(3,0,0,-3,-447.98902,2211.6559)"
       xml:space="preserve"
       stroke="black"
       stroke-linecap="butt"
       stroke-linejoin="miter"
       stroke-miterlimit="10.433"
       stroke-dasharray="none"
       stroke-dashoffset="0"
       stroke-opacity="1"
       fill="none"
       fill-rule="evenodd"
       fill-opacity="1"
       font-style="normal"
       font-variant="normal"
       font-weight="normal"
       font-stretch="normal"
       font-size-adjust="none"
       letter-spacing="normal"
       word-spacing="normal"
       text-anchor="start"
       ns0:text="$\\hat{e}_3\'$"
       ns0:preamble=""
       style="font-style:normal;font-variant:normal;font-weight:normal;font-stretch:normal;letter-spacing:normal;word-spacing:normal;text-anchor:start;fill:none;stroke:#000000;stroke-linecap:butt;stroke-linejoin:miter;stroke-miterlimit:10.43299961;stroke-opacity:1;stroke-dasharray:none;stroke-dashoffset:0">
<polygon
   points="226.31,714.03 224.97,712.68 225.15,712.5 226.31,713.52 227.45,712.5 227.63,712.68 "
   stroke-width="0"
   fill="black"
   id="polygon3388" />
<path
   d="M225.3,709.42 L225.32,709.42 L225.36,709.42 L225.39,709.42 L225.42,709.43 L225.46,709.43 L225.5,709.43 L225.54,709.43 L225.59,709.43 L225.63,709.43 L225.68,709.44 L225.73,709.44 L225.77,709.44 L225.82,709.45 L225.88,709.45 L225.98,709.46 L226.09,709.47 L226.2,709.49 L226.3,709.51 L226.41,709.53 L226.52,709.55 L226.57,709.57 L226.62,709.58 L226.68,709.6 L226.72,709.62 L226.77,709.63 L226.82,709.65 C227.52,709.95,227.57,710.54,227.57,710.68 C227.57,711.12,227.19,711.52,226.5,711.52 V711.3 C226.97,711.3,227.24,711.02,227.24,710.68 C227.24,709.64,225.65,709.64,225.24,709.64 H224.83 C225.22,711.16,226.24,711.3,226.5,711.3 V711.52 C225.4,711.52,223.89,710.56,223.89,708.82 C223.89,707.8,224.48,707.02,225.46,707.02 C226.88,707.02,227.72,708.07,227.72,708.19 C227.72,708.25,227.66,708.32,227.6,708.32 C227.55,708.32,227.53,708.3,227.47,708.22 C226.68,707.23,225.6,707.23,225.48,707.23 C224.7,707.23,224.61,708.07,224.61,708.39 C224.61,708.51,224.62,708.82,224.77,709.42 Z "
   stroke-width="0"
   fill="black"
   id="path3390" />
<path
   d="M230.09,714.02 L230.1,714.03 L230.1,714.04 L230.11,714.05 L230.11,714.06 L230.11,714.07 L230.12,714.08 L230.12,714.09 L230.12,714.1 L230.13,714.11 L230.13,714.12 L230.13,714.12 L230.13,714.13 L230.14,714.14 L230.14,714.15 L230.14,714.15 L230.14,714.16 L230.14,714.17 L230.15,714.17 L230.15,714.18 L230.15,714.18 L230.15,714.19 L230.15,714.2 L230.15,714.2 L230.15,714.21 L230.15,714.22 L230.15,714.23 L230.15,714.24 L230.15,714.24 C230.15,714.46,229.96,714.63,229.74,714.63 C229.48,714.63,229.39,714.41,229.36,714.3 L228.44,711.29 C228.43,711.28,228.4,711.18,228.4,711.18 C228.4,711.09,228.62,711.03,228.68,711.03 C228.73,711.03,228.73,711.04,228.78,711.14 Z "
   stroke-width="0"
   fill="black"
   id="path3392" />
<path
   d="M229.97,706.97 L230.02,706.97 L230.07,706.97 L230.12,706.96 L230.17,706.96 L230.21,706.95 L230.26,706.93 L230.3,706.92 L230.35,706.9 L230.39,706.89 L230.43,706.86 L230.47,706.84 L230.51,706.82 L230.54,706.79 L230.58,706.76 L230.61,706.73 L230.64,706.69 L230.67,706.66 L230.7,706.62 L230.73,706.58 L230.75,706.54 L230.78,706.49 L230.8,706.44 L230.82,706.4 L230.84,706.34 L230.85,706.29 L230.87,706.23 L230.88,706.18 L230.89,706.12 L230.9,706.05 L230.9,705.99 L230.9,705.92 L230.91,705.85 C230.91,704.99,230.4,704.73,230,704.73 C229.72,704.73,229.11,704.81,228.82,705.22 C229.14,705.24,229.22,705.47,229.22,705.61 C229.22,705.83,229.05,705.99,228.84,705.99 C228.64,705.99,228.45,705.88,228.45,705.59 C228.45,704.94,229.17,704.51,230.01,704.51 C230.98,704.51,231.65,705.16,231.65,705.85 C231.65,706.4,231.21,706.94,230.44,707.1 C231.17,707.36,231.43,707.89,231.43,708.31 C231.43,708.86,230.8,709.27,230.03,709.27 C229.26,709.27,228.66,708.89,228.66,708.34 C228.66,708.1,228.82,707.97,229.02,707.97 C229.24,707.97,229.38,708.13,229.38,708.32 C229.38,708.53,229.24,708.67,229.02,708.68 C229.27,708.99,229.75,709.07,230.01,709.07 C230.32,709.07,230.76,708.91,230.76,708.31 C230.76,708.02,230.66,707.7,230.48,707.48 C230.25,707.22,230.06,707.2,229.71,707.18 C229.53,707.17,229.52,707.17,229.49,707.16 C229.47,707.16,229.41,707.15,229.41,707.07 C229.41,706.97,229.48,706.97,229.6,706.97 Z "
   stroke-width="0"
   fill="black"
   id="path3394" />
</g>    <g
       style="font-style:normal;font-variant:normal;font-weight:normal;font-stretch:normal;letter-spacing:normal;word-spacing:normal;text-anchor:start;fill:none;stroke:#000000;stroke-linecap:butt;stroke-linejoin:miter;stroke-miterlimit:10.43299961;stroke-opacity:1;stroke-dasharray:none;stroke-dashoffset:0"
       ns0:preamble=""
       ns0:text="$\\hat{e}_3$"
       text-anchor="start"
       word-spacing="normal"
       letter-spacing="normal"
       font-size-adjust="none"
       font-stretch="normal"
       font-weight="normal"
       font-variant="normal"
       font-style="normal"
       fill-opacity="1"
       fill-rule="evenodd"
       fill="none"
       stroke-opacity="1"
       stroke-dashoffset="0"
       stroke-dasharray="none"
       stroke-miterlimit="10.433"
       stroke-linejoin="miter"
       stroke-linecap="butt"
       stroke="black"
       xml:space="preserve"
       transform="matrix(3,0,0,-3,-347.78968,2208.8372)"
       id="g3804">
<polygon
   id="polygon3806"
   fill="black"
   stroke-width="0"
   points="226.31,714.03 224.97,712.68 225.15,712.5 226.31,713.52 227.45,712.5 227.63,712.68 " />
<path
   id="path3808"
   fill="black"
   stroke-width="0"
   d="M225.3,709.42 L225.32,709.42 L225.36,709.42 L225.39,709.42 L225.42,709.43 L225.46,709.43 L225.5,709.43 L225.54,709.43 L225.59,709.43 L225.63,709.43 L225.68,709.44 L225.73,709.44 L225.77,709.44 L225.82,709.45 L225.88,709.45 L225.98,709.46 L226.09,709.47 L226.2,709.49 L226.3,709.51 L226.41,709.53 L226.52,709.55 L226.57,709.57 L226.62,709.58 L226.68,709.6 L226.72,709.62 L226.77,709.63 L226.82,709.65 C227.52,709.95,227.57,710.54,227.57,710.68 C227.57,711.12,227.19,711.52,226.5,711.52 V711.3 C226.97,711.3,227.24,711.02,227.24,710.68 C227.24,709.64,225.65,709.64,225.24,709.64 H224.83 C225.22,711.16,226.24,711.3,226.5,711.3 V711.52 C225.4,711.52,223.89,710.56,223.89,708.82 C223.89,707.8,224.48,707.02,225.46,707.02 C226.88,707.02,227.72,708.07,227.72,708.19 C227.72,708.25,227.66,708.32,227.6,708.32 C227.55,708.32,227.53,708.3,227.47,708.22 C226.68,707.23,225.6,707.23,225.48,707.23 C224.7,707.23,224.61,708.07,224.61,708.39 C224.61,708.51,224.62,708.82,224.77,709.42 Z " />
<path
   id="path3810"
   fill="black"
   stroke-width="0"
   d="M229.97,707.95 L230.02,707.95 L230.07,707.95 L230.12,707.94 L230.17,707.94 L230.21,707.93 L230.26,707.91 L230.3,707.9 L230.35,707.88 L230.39,707.86 L230.43,707.84 L230.47,707.82 L230.51,707.8 L230.54,707.77 L230.58,707.74 L230.61,707.71 L230.64,707.67 L230.67,707.64 L230.7,707.6 L230.73,707.56 L230.75,707.52 L230.78,707.47 L230.8,707.42 L230.82,707.37 L230.84,707.32 L230.85,707.27 L230.87,707.21 L230.88,707.16 L230.89,707.1 L230.9,707.03 L230.9,706.97 L230.9,706.9 L230.91,706.83 C230.91,705.97,230.4,705.71,230,705.71 C229.72,705.71,229.11,705.79,228.82,706.2 C229.14,706.22,229.22,706.44,229.22,706.59 C229.22,706.81,229.05,706.97,228.84,706.97 C228.64,706.97,228.45,706.85,228.45,706.57 C228.45,705.92,229.17,705.49,230.01,705.49 C230.98,705.49,231.65,706.14,231.65,706.83 C231.65,707.38,231.21,707.92,230.44,708.08 C231.17,708.34,231.43,708.86,231.43,709.29 C231.43,709.84,230.8,710.25,230.03,710.25 C229.26,710.25,228.66,709.87,228.66,709.32 C228.66,709.08,228.82,708.95,229.02,708.95 C229.24,708.95,229.38,709.11,229.38,709.3 C229.38,709.5,229.24,709.65,229.02,709.66 C229.27,709.97,229.75,710.05,230.01,710.05 C230.32,710.05,230.76,709.89,230.76,709.29 C230.76,709,230.66,708.68,230.48,708.46 C230.25,708.2,230.06,708.18,229.71,708.16 C229.53,708.15,229.52,708.15,229.49,708.14 C229.47,708.14,229.41,708.13,229.41,708.05 C229.41,707.95,229.48,707.95,229.6,707.95 Z " />
</g>  </g>
</svg>
